<svg version="1" xmlns="http://www.w3.org/2000/svg" width="45" height="45" viewBox="0 0 45 45"><path clip-rule="evenodd" stroke="#fff" stroke-width="2" stroke-miterlimit="10" d="M22 11c9.977 0 15.5 5.477 15.5 11 0 2.206-1.126 5.347-3 7 .72 1.342 3 5 3 5s-6.568-1.327-9.1-1.89c-1.093.312-4.118.89-6.4.89-8.56 0-14.5-5.478-14.5-11 0-5.523 5.19-11 14.5-11z" fill="none"/><path fill-rule="evenodd" clip-rule="evenodd" fill="#fff" d="M16.5 20.5c1.104 0 2 .896 2 2s-.896 2-2 2-2-.896-2-2 .896-2 2-2zM22.5 20.5c1.105 0 2 .896 2 2s-.895 2-2 2c-1.104 0-2-.896-2-2s.896-2 2-2zM28.5 20.5c1.104 0 2 .896 2 2s-.896 2-2 2-2-.896-2-2 .896-2 2-2z"/></svg>