<svg version="1" xmlns="http://www.w3.org/2000/svg" width="45" height="45" viewBox="0 0 45 45"><path stroke="#fff" stroke-width="2" stroke-miterlimit="10" d="M22 16.28c3.436 0 6.22 2.786 6.22 6.22 0 3.436-2.784 6.22-6.22 6.22-3.435 0-6.22-2.784-6.22-6.22 0-3.435 2.785-6.22 6.22-6.22zM16.74 12.69s1.046-.534 2.132-.994L19.582 8h4.834l.71 3.697s1.618.426 2.276.995c1.42-.96 3.127-2.132 3.127-2.132l3.41 3.554-1.99 2.985s.712 1.35.855 2.273c1.012.25 3.695.853 3.695.853v4.69l-3.695.855s-.424 1.544-.854 2.134c.84 1.275 1.99 3.127 1.99 3.127l-3.41 3.413L27.4 32.31s-1.23.713-2.275.994C24.92 34.66 24.56 37 24.56 37h-4.977l-.71-3.695s-1.352-.252-2.275-.996c-.428.374-3.127 2.132-3.127 2.132L10.2 31.03l1.99-2.982s-.704-1.268-.994-2.27c-1.072-.216-3.696-.862-3.696-.862v-4.833l3.696-.71s.443-1.57.995-2.275c-.58-.762-2.13-3.127-2.13-3.127l3.525-3.56 3.155 2.28z" fill="none"/></svg>