<?xml version="1.0" encoding="utf-8"?>
<!-- Generator: Adobe Illustrator 16.0.0, SVG Export Plug-In . SVG Version: 6.00 Build 0)  -->
<!DOCTYPE svg PUBLIC "-//W3C//DTD SVG 1.0//EN" "http://www.w3.org/TR/2001/REC-SVG-20010904/DTD/svg10.dtd">
<svg version="1.0" id="Layer_1" xmlns="http://www.w3.org/2000/svg" xmlns:xlink="http://www.w3.org/1999/xlink" x="0px" y="0px"
	 width="45px" height="45px" viewBox="0 0 45 45" enable-background="new 0 0 45 45" xml:space="preserve">
<path fill="none" stroke="#FFFFFF" stroke-width="2" stroke-miterlimit="10" d="M22,16.281c3.436,0,6.219,2.785,6.219,6.219
	c0,3.436-2.783,6.219-6.219,6.219c-3.435,0-6.219-2.783-6.219-6.219C15.781,19.065,18.565,16.281,22,16.281z"/>
<path fill="none" stroke="#FFFFFF" stroke-width="2" stroke-miterlimit="10" d="M16.74,12.691c0,0,1.046-0.535,2.132-0.995
	C19.121,10.398,19.583,8,19.583,8h4.833l0.711,3.697c0,0,1.617,0.426,2.275,0.995c1.421-0.959,3.127-2.132,3.127-2.132l3.412,3.554
	l-1.99,2.985c0,0,0.711,1.351,0.854,2.274c1.012,0.249,3.695,0.853,3.695,0.853v4.691l-3.695,0.854c0,0-0.424,1.543-0.854,2.133
	c0.838,1.275,1.99,3.127,1.99,3.127l-3.412,3.412l-3.127-2.133c0,0-1.229,0.713-2.275,0.994C24.92,34.66,24.559,37,24.559,37h-4.976
	l-0.71-3.695c0,0-1.352-0.252-2.275-0.996c-0.428,0.375-3.127,2.133-3.127,2.133l-3.27-3.412l1.99-2.982
	c0,0-0.705-1.268-0.995-2.271C10.124,25.562,7.5,24.916,7.5,24.916v-4.833l3.696-0.711c0,0,0.443-1.57,0.995-2.274
	c-0.582-0.762-2.132-3.127-2.132-3.127l3.526-3.562L16.74,12.691z"/>
</svg>
