<?xml version="1.0" encoding="utf-8"?>
<!-- Generator: Adobe Illustrator 16.0.0, SVG Export Plug-In . SVG Version: 6.00 Build 0)  -->
<!DOCTYPE svg PUBLIC "-//W3C//DTD SVG 1.0//EN" "http://www.w3.org/TR/2001/REC-SVG-20010904/DTD/svg10.dtd">
<svg version="1.0" id="Layer_1" xmlns="http://www.w3.org/2000/svg" xmlns:xlink="http://www.w3.org/1999/xlink" x="0px" y="0px"
	 width="45px" height="45px" viewBox="0 0 45 45" enable-background="new 0 0 45 45" xml:space="preserve">
<path fill-rule="evenodd" clip-rule="evenodd" fill="none" stroke="#FFFFFF" stroke-width="2" stroke-miterlimit="10" d="M22,11
	c9.977,0,15.5,5.477,15.5,11c0,2.206-1.126,5.347-3,7.001c0.721,1.341,3,5,3,5s-6.568-1.328-9.1-1.891
	C27.307,32.422,24.282,33,22,33c-8.561,0-14.5-5.478-14.5-11.001C7.5,16.477,12.689,11,22,11z"/>
<path fill-rule="evenodd" clip-rule="evenodd" fill="#FFFFFF" d="M16.5,20.5c1.104,0,2,0.896,2,2s-0.896,2-2,2s-2-0.896-2-2
	S15.396,20.5,16.5,20.5z"/>
<path fill-rule="evenodd" clip-rule="evenodd" fill="#FFFFFF" d="M22.5,20.5c1.105,0,2,0.896,2,2s-0.895,2-2,2c-1.104,0-2-0.896-2-2
	S21.396,20.5,22.5,20.5z"/>
<path fill-rule="evenodd" clip-rule="evenodd" fill="#FFFFFF" d="M28.5,20.5c1.104,0,2,0.896,2,2s-0.896,2-2,2s-2-0.896-2-2
	S27.396,20.5,28.5,20.5z"/>
</svg>
